{"title":"RussiansLikeItBig - Stunning Schoolgirl Ass Abused - Nikita HD","uid":10798827,"size":1156050043,"categoryP":"porn","categoryS":"movie_clips","magnet":"?xt=urn:btih:7ee67bee89c10e5551716a3fe5666bb232cb32e6&amp;dn=RussiansLikeItBig+-+Stunning+Schoolgirl+Ass+Abused+-+Nikita+HD&amp;tr=udp%3A%2F%2Ftracker.openbittorrent.com%3A80&amp;tr=udp%3A%2F%2Fopen.demonii.com%3A1337&amp;tr=udp%3A%2F%2Ftracker.coppersurfer.tk%3A6969&amp;tr=udp%3A%2F%2Fexodus.desync.com%3A6969","seeders":0,"leechers":4,"uploader":"ThousandPeers","files":-1,"time":1408319353,"description":"Format                                   : Windows Media\nFile size                                : 1.08 GiB\nDuration                                 : 24mn 22s\nOverall bit rate mode                    : Constant\nOverall bit rate                         : 6 318 Kbps\nMaximum Overall bit rate                 : 6 342 Kbps\nEncoded date                             : UTC 2011-02-22 02:17:35.777\nSfOriginalFPS                            : 299700\n\nVideo\nID                                       : 2\nFormat                                   : VC-1\nFormat profile                           : MP@HL\nCodec ID                                 : WMV3\nCodec ID/Info                            : Windows Media Video 9\nCodec ID/Hint                            : WMV3\nDescription of the codec                 : Windows Media Video 9 - Professional\nDuration                                 : 24mn 22s\nBit rate mode                            : Constant\nBit rate                                 : 6 099 Kbps\nWidth                                    : 1 280 pixels\nHeight                                   : 720 pixels\nDisplay aspect ratio                     : 16:9\nFrame rate                               : 29.970 fps\nBit depth                                : 8 bits\nScan type                                : Progressive\nCompression mode                         : Lossy\nBits/(Pixel*Frame)                       : 0.221\nStream size                              : 1.04 GiB (97%)\nLanguage                                 : English (US)\n\nAudio\nID                                       : 1\nFormat                                   : WMA\nFormat version                           : Version 2\nCodec ID                                 : 161\nCodec ID/Info                            : Windows Media Audio\nDescription of the codec                 : Windows Media Audio 9.2 - 192 kbps, 48 kHz, stereo (A/V) 1-pass CBR\nDuration                                 : 24mn 22s\nBit rate mode                            : Constant\nBit rate                                 : 192 Kbps\nChannel(s)                               : 2 channels\nSampling rate                            : 48.0 KHz\nBit depth                                : 16 bits\nStream size                              : 33.5 MiB (3%)\nLanguage                                 : English (US)\n","torrent":{"xt":"urn:btih:7ee67bee89c10e5551716a3fe5666bb232cb32e6","amp;dn":"RussiansLikeItBig+-+Stunning+Schoolgirl+Ass+Abused+-+Nikita+HD","amp;tr":["udp%3A%2F%2Ftracker.openbittorrent.com%3A80","udp%3A%2F%2Fopen.demonii.com%3A1337","udp%3A%2F%2Ftracker.coppersurfer.tk%3A6969","udp%3A%2F%2Fexodus.desync.com%3A6969"],"infoHash":"7ee67bee89c10e5551716a3fe5666bb232cb32e6","infoHashBuffer":{"type":"Buffer","data":[126,230,123,238,137,193,14,85,81,113,106,63,229,102,107,178,50,203,50,230]},"announce":[],"urlList":[]}}